<svg width="550" height="550" viewBox="0 0 550 550" fill="none" xmlns="http://www.w3.org/2000/svg">
<path fill-rule="evenodd" clip-rule="evenodd" d="M-38.919 490.964C-10.8241 489.073 20.4975 482.126 40.8434 499.547C63.3629 518.829 69.9281 550.059 61.4141 576.875C53.3376 602.313 28.2818 620.992 -0.0909882 628.475C-23.9759 634.775 -45.6063 620.093 -68.3914 611.11C-92.9153 601.441 -125.606 598.575 -133.794 575.761C-142.333 551.971 -124.677 527.028 -104.912 509.362C-87.7687 494.04 -63.0936 492.592 -38.919 490.964Z" fill="#DEEBF8"/>
<path fill-rule="evenodd" clip-rule="evenodd" d="M487.409 71.3947C459.121 40.8508 421.318 11.7816 425.173 -29.6933C429.439 -75.599 463.854 -115.359 506.419 -133.133C546.797 -149.994 594.035 -140.256 629.822 -115.149C659.947 -94.0141 660.823 -53.8756 670.141 -18.271C680.17 20.0508 706.521 60.8106 684.501 93.7792C661.538 128.159 612.991 133.432 571.931 128.768C536.318 124.723 511.751 97.6768 487.409 71.3947Z" fill="#FFFAD1"/>
</svg>
